<?xml version="1.0" encoding="UTF-8"?>
<svg version="1.1" xmlns="http://www.w3.org/2000/svg" width="229" height="135">
<path d="M0 0 C75.57 0 151.14 0 229 0 C229 44.55 229 89.1 229 135 C153.43 135 77.86 135 0 135 C0 90.45 0 45.9 0 0 Z " fill="#191919" transform="translate(0,0)"/>
<path d="M0 0 C0.625 1.8515625 0.625 1.8515625 1 4 C0.34 4.78375 -0.32 5.5675 -1 6.375 C-3.29670866 8.83941433 -3.29670866 8.83941433 -3 11.9375 C-0.23680502 20.39978464 5.58532833 23.84883862 12.90625 28.109375 C17.84949293 30.21209774 23.19855302 30.21013466 28.5 30.3125 C29.7684375 30.34988281 31.036875 30.38726562 32.34375 30.42578125 C36.61579137 29.92828925 38.70322988 28.71122438 42 26 C43.41190564 23.39562767 43.41190564 23.39562767 44 21 C45.98 21.495 45.98 21.495 48 22 C48.21888149 25.13730131 48.14560274 27.57359197 47.125 30.5625 C42.96400743 35.33540325 37.91280797 37.63632386 31.65234375 38.41796875 C15.52478618 38.79302823 1.4518837 33.62619147 -10.453125 22.734375 C-12 21 -12 21 -12 19 C-12.66 19 -13.32 19 -14 19 C-11.44928465 29.91885169 -6.11520282 37.44507411 3 44 C17.73551147 53.04964401 33.9563847 55.76033802 51 54 C54.28718687 53.07908706 54.28718687 53.07908706 57 52 C60.6875 51.625 60.6875 51.625 64 52 C66 53.6875 66 53.6875 67 56 C66.9375 58.5625 66.9375 58.5625 66 61 C58.80678123 67.76606801 45.07579886 67.45585772 35.69262695 67.34863281 C15.86805952 66.73155855 -3.09182913 59.67315781 -19 48 C-19.72703125 47.47535156 -20.4540625 46.95070312 -21.203125 46.41015625 C-25.90109266 42.72327294 -28.92370828 38.07081052 -32 33 C-33.17395598 43.0221057 -29.65118251 49.29283824 -23.609375 57.08203125 C-17.35068515 64.53869629 -10.48375237 69.300194 -2 74 C-1.01 74.66 -0.02 75.32 1 76 C2.99541868 76.68025637 4.99617991 77.34490497 7 78 C8.71970527 78.73439371 10.43922884 79.46922576 12.15673828 80.20874023 C24.53418225 85.52202446 36.36800851 86.78080691 49.70336914 87.27954102 C50.96012451 87.33424561 52.21687988 87.3889502 53.51171875 87.4453125 C55.20494263 87.49969482 55.20494263 87.49969482 56.93237305 87.55517578 C61.02011038 88.14792209 63.53237991 89.93724062 66.8125 92.3125 C68.68347735 94.97125728 68.44320143 96.8342755 68 100 C66.4597168 102.66259766 66.4597168 102.66259766 64 105 C61.19184625 105.46035307 59.00242662 105.6114602 56.20703125 105.5234375 C55.46039719 105.51873444 54.71376312 105.51403137 53.94450378 105.50918579 C51.56622127 105.48787711 49.19018497 105.43126234 46.8125 105.375 C45.2011928 105.35849037 43.58986189 105.34414294 41.97851562 105.33203125 C30.19576994 105.19576994 30.19576994 105.19576994 29 104 C26.65033216 103.67406877 24.29484369 103.3897657 21.9375 103.125 C17.07550393 102.52916715 12.66589216 101.79594624 8.16796875 99.8203125 C5.27768093 98.72669008 2.32868364 98.17171225 -0.6875 97.5 C-7.55573817 95.82315987 -13.62391919 92.95344285 -19.875 89.6875 C-20.74213623 89.23761719 -21.60927246 88.78773437 -22.50268555 88.32421875 C-28.49110082 85.09770437 -33.76537813 81.33378299 -39 77 C-39.91910156 76.24074219 -40.83820312 75.48148437 -41.78515625 74.69921875 C-52.74670243 65.01620625 -63.97437448 52.25943006 -65.25 37.01171875 C-65.4314252 27.90644136 -64.31726283 21.6097575 -57.9765625 14.8515625 C-48.65520403 6.11969706 -36.28011889 3.50842078 -24 1.75 C-22.90171875 1.57726562 -21.8034375 1.40453125 -20.671875 1.2265625 C-13.73132459 0.19041398 -7.01382339 -0.22137819 0 0 Z " fill="#F7F7F7" transform="translate(91,13)"/>
<path d="M0 0 C2.50304599 0.38300919 3.75074965 0.75012653 5.5625 2.56640625 C12.48036786 12.17246733 15.90995221 19.97346492 15 32 C14.24480256 34.88467859 13.25567735 37.27936573 12 40 C11.34 40 10.68 40 10 40 C9.73574219 40.598125 9.47148437 41.19625 9.19921875 41.8125 C6.12399228 47.42203362 -0.29610684 51.44308238 -6 54 C-9.15980645 54.62230484 -11.86283767 54.79337503 -15 54 C-18.19374304 50.80625696 -18.90754449 48.77926787 -19.4375 44.3125 C-19 41 -19 41 -17.9375 39.25 C-15.70241382 37.80800892 -13.34997831 36.8730923 -10.8984375 35.859375 C-4.91467222 33.15067467 -0.87226137 29.56576745 2.12109375 23.66796875 C4.22895655 17.26943412 4.02287462 10.51456676 1.5 4.3125 C1.005 3.549375 0.51 2.78625 0 2 C0 1.34 0 0.68 0 0 Z " fill="#F2F2F2" transform="translate(187,55)"/>
<path d="M0 0 C3.7890625 0.7109375 3.7890625 0.7109375 5.6875 3.3125 C7.60992018 7.24888419 8.17006616 10.63028318 8.25 15 C8.28867188 16.2684375 8.28867188 16.2684375 8.328125 17.5625 C7.93637521 20.47264128 6.91578046 21.8220601 5 24 C0.25 23.125 0.25 23.125 -2 22 C-2.125 18.625 -2.125 18.625 -2 15 C-1.34 14.34 -0.68 13.68 0 13 C0.24360073 9.87185486 0.24360073 9.87185486 0.125 6.375 C0.10695312 5.18648437 0.08890625 3.99796875 0.0703125 2.7734375 C0.04710937 1.85820313 0.02390625 0.94296875 0 0 Z " fill="#E6E6E6" transform="translate(162,40)"/>
<path d="M0 0 C1.98 0.495 1.98 0.495 4 1 C4.125 3.875 4.125 3.875 4 7 C3.34 7.66 2.68 8.32 2 9 C1.67 7.35 1.34 5.7 1 4 C0.01 4.495 0.01 4.495 -1 5 C-0.67 3.35 -0.34 1.7 0 0 Z " fill="#C8C8C8" transform="translate(135,34)"/>
<path d="M0 0 C1.32 0.33 2.64 0.66 4 1 C3.34 3.97 2.68 6.94 2 10 C1.67 10 1.34 10 1 10 C0.67 6.7 0.34 3.4 0 0 Z " fill="#B3B3B3" transform="translate(162,40)"/>
</svg>
